HIERARCHY
ROOT Hips
{
  OFFSET 13.9192 87.0099 7.45665
  CHANNELS 6 Xposition Yposition Zposition Zrotation Xrotation Yrotation
  JOINT RightUpLeg
  {
    OFFSET -9.25892 -1.51126 0.0103963
    CHANNELS 3 Zrotation Xrotation Yrotation
    JOINT RightLeg
    {
      OFFSET -0.0493687 -41.9019 0.103893
      CHANNELS 3 Zrotation Xrotation Yrotation
      JOINT RightFoot
      {
        OFFSET -1.32222 -41.6903 -0.651221
        CHANNELS 3 Zrotation Xrotation Yrotation
        End Site
        {
          OFFSET 0 -7.69 17.5
        }
      }
    }
  }
  JOINT LeftUpLeg
  {
    OFFSET 9.27814 -1.57439 0.0532125
    CHANNELS 3 Zrotation Xrotation Yrotation
    JOINT LeftLeg
    {
      OFFSET 0.0812204 -41.881 0.0464493
      CHANNELS 3 Zrotation Xrotation Yrotation
      JOINT LeftFoot
      {
        OFFSET -0.0110097 -42.3775 0.673629
        CHANNELS 3 Zrotation Xrotation Yrotation
        End Site
        {
          OFFSET 0 -7.69 17.5
        }
      }
    }
  }
  JOINT Spine
  {
    OFFSET 0.0235844 14.3019 0.0112981
    CHANNELS 3 Zrotation Xrotation Yrotation
    JOINT Spine1
    {
      OFFSET 0.0175769 9.71285 0.00895779
      CHANNELS 3 Zrotation Xrotation Yrotation
      JOINT Spine2
      {
        OFFSET 0.0285364 10.1117 0.00103808
        CHANNELS 3 Zrotation Xrotation Yrotation
        JOINT Spine3
        {
          OFFSET 0.0259409 9.72657 0.0104237
          CHANNELS 3 Zrotation Xrotation Yrotation
          JOINT Neck
          {
            OFFSET -0.0111787 10.3773 0.0255796
            CHANNELS 3 Zrotation Xrotation Yrotation
            JOINT Head
            {
              OFFSET -0.00267722 9.48908 0.0510269
              CHANNELS 3 Zrotation Xrotation Yrotation
              End Site
              {
                OFFSET 0 15.95 0
              }
            }
          }
          JOINT RightShoulder
          {
            OFFSET -3.1909 6.94591 0.0199124
            CHANNELS 3 Zrotation Xrotation Yrotation
            JOINT RightArm
            {
              OFFSET -12.7524 0.0197095 0.0110528
              CHANNELS 3 Zrotation Xrotation Yrotation
              JOINT RightForeArm
              {
                OFFSET -26.4891 -0.0606575 0.0254635
                CHANNELS 3 Zrotation Xrotation Yrotation
                JOINT RightHand
                {
                  OFFSET -26.017 -0.0465962 -0.00264686
                  CHANNELS 3 Zrotation Xrotation Yrotation
                  JOINT RightHandThumb1
                  {
                    OFFSET -2.48905 0.190105 3.12053
                    CHANNELS 3 Zrotation Xrotation Yrotation
                    JOINT RightHandThumb2
                    {
                      OFFSET -3.68274 0 0
                      CHANNELS 3 Zrotation Xrotation Yrotation
                      JOINT RightHandThumb3
                      {
                        OFFSET -2.55832 0 0
                        CHANNELS 3 Zrotation Xrotation Yrotation
                        End Site
                        {
                          OFFSET -2.194 0 0
                        }
                      }
                    }
                  }
                  JOINT RightInHandIndex
                  {
                    OFFSET -3.22368 0.508421 1.97842
                    CHANNELS 3 Zrotation Xrotation Yrotation
                    JOINT RightHandIndex1
                    {
                      OFFSET -5.21684 -0.091368 0.999158
                      CHANNELS 3 Zrotation Xrotation Yrotation
                      JOINT RightHandIndex2
                      {
                        OFFSET -3.61937 0 0
                        CHANNELS 3 Zrotation Xrotation Yrotation
                        JOINT RightHandIndex3
                        {
                          OFFSET -2.0521 0 0
                          CHANNELS 3 Zrotation Xrotation Yrotation
                          End Site
                          {
                            OFFSET -1.805 0 0
                          }
                        }
                      }
                    }
                  }
                  JOINT RightInHandMiddle
                  {
                    OFFSET -3.38211 0.517263 0.756737
                    CHANNELS 3 Zrotation Xrotation Yrotation
                    JOINT RightHandMiddle1
                    {
                      OFFSET -5.17411 -0.084 0.313895
                      CHANNELS 3 Zrotation Xrotation Yrotation
                      JOINT RightHandMiddle2
                      {
                        OFFSET -3.94947 0 0
                        CHANNELS 3 Zrotation Xrotation Yrotation
                        JOINT RightHandMiddle3
                        {
                          OFFSET -2.47579 0 0
                          CHANNELS 3 Zrotation Xrotation Yrotation
                          End Site
                          {
                            OFFSET -1.975 0 0
                          }
                        }
                      }
                    }
                  }
                  JOINT RightInHandRing
                  {
                    OFFSET -3.36516 0.537895 -0.128947
                    CHANNELS 3 Zrotation Xrotation Yrotation
                    JOINT RightHandRing1
                    {
                      OFFSET -4.63474 -0.022105 -0.478947
                      CHANNELS 3 Zrotation Xrotation Yrotation
                      JOINT RightHandRing2
                      {
                        OFFSET -3.44238 0 0
                        CHANNELS 3 Zrotation Xrotation Yrotation
                        JOINT RightHandRing3
                        {
                          OFFSET -2.3881 0 0
                          CHANNELS 3 Zrotation Xrotation Yrotation
                          End Site
                          {
                            OFFSET -1.857 0 0
                          }
                        }
                      }
                    }
                  }
                  JOINT RightInHandPinky
                  {
                    OFFSET -3.16105 0.469368 -1.20179
                    CHANNELS 3 Zrotation Xrotation Yrotation
                    JOINT RightHandPinky1
                    {
                      OFFSET -4.14105 -0.022105 -1.09053
                      CHANNELS 3 Zrotation Xrotation Yrotation
                      JOINT RightHandPinky2
                      {
                        OFFSET -2.75653 0 0
                        CHANNELS 3 Zrotation Xrotation Yrotation
                        JOINT RightHandPinky3
                        {
                          OFFSET -1.74189 0 0
                          CHANNELS 3 Zrotation Xrotation Yrotation
                          End Site
                          {
                            OFFSET -1.645 0 0
                          }
                        }
                      }
                    }
                  }
                }
              }
            }
          }
          JOINT LeftShoulder
          {
            OFFSET 3.2161 6.92611 -0.00186679
            CHANNELS 3 Zrotation Xrotation Yrotation
            JOINT LeftArm
            {
              OFFSET 12.7484 -0.0283569 -0.0302446
              CHANNELS 3 Zrotation Xrotation Yrotation
              JOINT LeftForeArm
              {
                OFFSET 26.4766 -0.0880322 -0.0033192
                CHANNELS 3 Zrotation Xrotation Yrotation
                JOINT LeftHand
                {
                  OFFSET 26.0079 -0.0456134 -0.0735001
                  CHANNELS 3 Zrotation Xrotation Yrotation
                  JOINT LeftHandThumb1
                  {
                    OFFSET 2.48905 0.190105 3.12053
                    CHANNELS 3 Zrotation Xrotation Yrotation
                    JOINT LeftHandThumb2
                    {
                      OFFSET 3.68274 0 0
                      CHANNELS 3 Zrotation Xrotation Yrotation
                      JOINT LeftHandThumb3
                      {
                        OFFSET 2.55832 0 0
                        CHANNELS 3 Zrotation Xrotation Yrotation
                        End Site
                        {
                          OFFSET 2.194 0 0
                        }
                      }
                    }
                  }
                  JOINT LeftInHandIndex
                  {
                    OFFSET 3.22368 0.508421 1.97842
                    CHANNELS 3 Zrotation Xrotation Yrotation
                    JOINT LeftHandIndex1
                    {
                      OFFSET 5.21684 -0.091368 0.999158
                      CHANNELS 3 Zrotation Xrotation Yrotation
                      JOINT LeftHandIndex2
                      {
                        OFFSET 3.61937 0 0
                        CHANNELS 3 Zrotation Xrotation Yrotation
                        JOINT LeftHandIndex3
                        {
                          OFFSET 2.0521 0 0
                          CHANNELS 3 Zrotation Xrotation Yrotation
                          End Site
                          {
                            OFFSET 1.805 0 0
                          }
                        }
                      }
                    }
                  }
                  JOINT LeftInHandMiddle
                  {
                    OFFSET 3.38211 0.517263 0.756737
                    CHANNELS 3 Zrotation Xrotation Yrotation
                    JOINT LeftHandMiddle1
                    {
                      OFFSET 5.17411 -0.084 0.313895
                      CHANNELS 3 Zrotation Xrotation Yrotation
                      JOINT LeftHandMiddle2
                      {
                        OFFSET 3.94947 0 0
                        CHANNELS 3 Zrotation Xrotation Yrotation
                        JOINT LeftHandMiddle3
                        {
                          OFFSET 2.47579 0 0
                          CHANNELS 3 Zrotation Xrotation Yrotation
                          End Site
                          {
                            OFFSET 1.975 0 0
                          }
                        }
                      }
                    }
                  }
                  JOINT LeftInHandRing
                  {
                    OFFSET 3.36516 0.537895 -0.128947
                    CHANNELS 3 Zrotation Xrotation Yrotation
                    JOINT LeftHandRing1
                    {
                      OFFSET 4.63474 -0.022105 -0.478947
                      CHANNELS 3 Zrotation Xrotation Yrotation
                      JOINT LeftHandRing2
                      {
                        OFFSET 3.44238 0 0
                        CHANNELS 3 Zrotation Xrotation Yrotation
                        JOINT LeftHandRing3
                        {
                          OFFSET 2.3881 0 0
                          CHANNELS 3 Zrotation Xrotation Yrotation
                          End Site
                          {
                            OFFSET 1.857 0 0
                          }
                        }
                      }
                    }
                  }
                  JOINT LeftInHandPinky
                  {
                    OFFSET 3.16105 0.469368 -1.20179
                    CHANNELS 3 Zrotation Xrotation Yrotation
                    JOINT LeftHandPinky1
                    {
                      OFFSET 4.14105 -0.022105 -1.09053
                      CHANNELS 3 Zrotation Xrotation Yrotation
                      JOINT LeftHandPinky2
                      {
                        OFFSET 2.75653 0 0
                        CHANNELS 3 Zrotation Xrotation Yrotation
                        JOINT LeftHandPinky3
                        {
                          OFFSET 1.74189 0 0
                          CHANNELS 3 Zrotation Xrotation Yrotation
                          End Site
                          {
                            OFFSET 1.645 0 0
                          }
                        }
                      }
                    }
                  }
                }
              }
            }
          }
        }
      }
    }
  }
}
MOTION
Frames:	4
Frame Time:	0.00833333
19.888 86.2091 8.45127 30.2009 -12.2369 -119.306 5.86608 -67.4753 23.5846 9.55132 38.866 -28.0547 5.1731 -4.88387 29.4361 26.3028 -63.2479 18.5798 7.05453 35.0268 4.13138 -12.8371 -0.167677 -3.9719 2.13743 14.7205 -0.0303012 0.520373 3.70786 0.13692 0.856181 6.06307 0.292819 -0.553253 0.389916 -0.392258 -0.554538 0.383418 -0.398006 -9.67715 6.75313 -7.55085 7.27408 0.0482224 6.49428 63.468 22.9989 65.8238 -4.49732 -29.4154 -5.76638 9.19556 -28.4952 4.66842 28.184 10.7294 19.1592 5.60818e-16 3.18055e-15 -10 -3.72279e-15 6.36111e-15 -10 -3.97569e-15 0 1.59028e-15 19.9818 0.871897 2.3964 24 1.59028e-15 -9.54166e-15 20 1.59028e-15 -0 -3.97569e-15 0 1.59028e-15 20 3.18055e-15 -3.18055e-15 24 -1.59028e-15 3.18055e-15 20 -3.47873e-15 -6.36111e-15 -3.97569e-15 0 1.59028e-15 19.9748 -1.02565 -2.81938 24 3.97569e-15 -6.36111e-15 20 4.77083e-15 6.36111e-15 -3.97569e-15 0 1.59028e-15 19.7815 -3.00948 -8.30515 24 5.56597e-15 -1.59028e-14 20 -3.18055e-15 -9.54166e-15 -17.9007 -10.1634 -14.1283 -31.6003 49.1008 -60.1929 -45.1081 -74.7174 -54.1184 -62.4034 -60.2317 -72.0288 -28.184 10.7294 -19.1592 -6.45924e-15 0 10 4.07085e-15 -4.77083e-15 10 3.18055e-15 -3.18055e-15 -0 -19.9818 0.871897 -2.3964 -24 -3.57812e-15 -3.18055e-15 -20 3.18055e-15 -0 3.18055e-15 -3.18055e-15 -0 -20 4.77083e-15 9.54166e-15 -24 1.59028e-15 -6.36111e-15 -20 0 -6.36111e-15 3.18055e-15 -3.18055e-15 -0 -19.9748 -1.02565 2.81938 -24 -5.56597e-15 -9.54166e-15 -20 0 -9.54166e-15 3.18055e-15 -3.18055e-15 -0 -19.7815 -3.00948 8.30515 -24 1.59028e-15 -0 -20 0 -0 
19.8862 86.2165 8.45695 30.196 -12.2505 -119.338 5.92997 -67.4658 23.6524 9.52628 38.8315 -28.0426 5.17223 -4.8528 29.4458 26.3386 -63.2233 18.5869 7.03094 35.009 4.17954 -12.8372 -0.16515 -3.96042 2.14359 14.7142 -0.0513281 0.52097 3.70763 0.131678 0.857354 6.06276 0.283898 -0.555987 0.390017 -0.39051 -0.55728 0.383448 -0.396274 -9.72951 6.75806 -7.50929 7.26327 0.056203 6.48628 63.5 23.0006 65.7653 -4.44093 -29.4951 -5.67246 9.20046 -28.499 4.66114 28.184 10.7294 19.1592 -3.22962e-15 0 -10 -2.17563e-15 -3.18055e-15 -10 -1.59028e-15 -3.18055e-15 -1.59028e-15 19.9818 0.871897 2.3964 24 0 6.36111e-15 20 -1.39149e-15 -0 -1.59028e-15 -3.18055e-15 -1.59028e-15 20 -3.18055e-15 9.54166e-15 24 7.95139e-15 -3.18055e-15 20 1.2424e-15 9.54166e-15 -1.59028e-15 -3.18055e-15 -1.59028e-15 19.9748 -1.02565 -2.81938 24 0 -0 20 2.78299e-15 3.18055e-15 -1.59028e-15 -3.18055e-15 -1.59028e-15 19.7815 -3.00948 -8.30515 24 3.18055e-15 2.22639e-14 20 -7.95139e-16 9.54166e-15 -17.8862 -10.165 -14.1227 -31.5892 49.1264 -60.2172 -44.978 -74.7129 -53.993 -62.3685 -60.245 -72.01 -28.184 10.7294 -19.1592 -1.12164e-15 6.36111e-15 10 1.12698e-14 4.77083e-15 10 1.59028e-15 -3.18055e-15 3.18055e-15 -19.9818 0.871897 -2.3964 -24 1.98785e-15 3.18055e-15 -20 0 6.36111e-15 1.59028e-15 -3.18055e-15 3.18055e-15 -20 -3.97569e-15 -6.36111e-15 -24 -7.95139e-16 6.36111e-15 -20 0 3.18055e-15 1.59028e-15 -3.18055e-15 3.18055e-15 -19.9748 -1.02565 2.81938 -24 -7.15625e-15 9.54166e-15 -20 3.18055e-15 -0 1.59028e-15 -3.18055e-15 3.18055e-15 -19.7815 -3.00948 8.30515 -24 -3.18055e-15 3.18055e-15 -20 0 1.27222e-14 
19.8844 86.2238 8.46191 30.1954 -12.2664 -119.37 5.98218 -67.4597 23.7149 9.50364 38.7956 -28.0306 5.1743 -4.82206 29.4511 26.3724 -63.2044 18.5914 7.00265 35.0023 4.23149 -12.8375 -0.165455 -3.96089 2.14982 14.7057 -0.0728191 0.521569 3.70744 0.126123 0.858573 6.05846 0.27436 -0.558651 0.390109 -0.389487 -0.55996 0.383466 -0.395263 -9.78554 6.76271 -7.47671 7.26099 0.061136 6.47244 63.5449 23.0129 65.6951 -4.3909 -29.5908 -5.56893 9.2869 -28.7805 4.76014 28.184 10.7294 19.1592 -1.03173e-14 -1.27222e-14 -10 2.6688e-15 -3.18055e-15 -10 -1.59028e-15 -3.18055e-15 -0 19.9818 0.871897 2.3964 24 0 -3.18055e-15 20 2.38542e-15 6.36111e-15 -1.59028e-15 -3.18055e-15 -0 20 -3.18055e-15 6.36111e-15 24 1.59028e-15 6.36111e-15 20 2.33572e-15 -0 -1.59028e-15 -3.18055e-15 -0 19.9748 -1.02565 -2.81938 24 7.95139e-16 -0 20 3.18055e-15 6.36111e-15 -1.59028e-15 -3.18055e-15 -0 19.7815 -3.00948 -8.30515 24 3.18055e-15 -0 20 1.59028e-15 3.18055e-15 -17.8657 -10.1658 -14.1176 -31.576 49.1573 -60.2527 -44.8007 -74.7191 -53.8275 -62.3146 -60.2715 -71.9861 -28.184 10.7294 -19.1592 2.38839e-15 4.77083e-15 10 7.26664e-15 0 10 3.18055e-15 0 3.18055e-15 -19.9818 0.871897 -2.3964 -24 2.78299e-15 -0 -20 -3.18055e-15 -3.18055e-15 3.18055e-15 0 3.18055e-15 -20 -1.59028e-15 -0 -24 -3.97569e-15 -9.54166e-15 -20 -1.59028e-15 -3.18055e-15 3.18055e-15 0 3.18055e-15 -19.9748 -1.02565 2.81938 -24 -1.59028e-15 -3.18055e-15 -20 -4.77083e-15 3.18055e-15 3.18055e-15 0 3.18055e-15 -19.7815 -3.00948 8.30515 -24 6.36111e-15 -3.18055e-15 -20 0 6.36111e-15 
19.883 86.2322 8.46817 30.2027 -12.2907 -119.408 6.02447 -67.4586 23.7803 9.48458 38.765 -28.021 5.17999 -4.79389 29.4613 26.4385 -63.1791 18.6319 6.95616 35.0029 4.29512 -12.8383 -0.172821 -3.96283 2.15628 14.6957 -0.0955655 0.522188 3.70728 0.119981 0.859869 6.05369 0.263777 -0.561296 0.390193 -0.388941 -0.562624 0.383475 -0.394728 -9.82624 6.76668 -7.44052 7.24129 0.0759499 6.45809 63.6063 23.0192 65.625 -4.33361 -29.6957 -5.45133 9.29032 -28.767 4.75685 28.184 10.7294 19.1592 4.35126e-15 6.36111e-15 -10 2.73645e-15 6.36111e-15 -10 -3.18055e-15 -3.18055e-15 -0 19.9818 0.871897 2.3964 24 3.18055e-15 -6.36111e-15 20 6.16232e-15 3.18055e-15 -3.18055e-15 -3.18055e-15 -0 20 3.18055e-15 -3.18055e-15 24 1.59028e-15 3.18055e-15 20 4.07509e-15 6.36111e-15 -3.18055e-15 -3.18055e-15 -0 19.9748 -1.02565 -2.81938 24 -3.18055e-15 -3.18055e-15 20 3.97569e-16 -0 -3.18055e-15 -3.18055e-15 -0 19.7815 -3.00948 -8.30515 24 5.1684e-15 9.54166e-15 20 0 6.36111e-15 -17.8482 -10.1656 -14.1075 -31.5474 49.1958 -60.311 -44.6083 -74.7348 -53.6509 -62.2093 -60.2963 -71.9169 -28.184 10.7294 -19.1592 -5.93224e-15 1.59028e-15 10 -5.65183e-15 0 10 2.38542e-15 3.18055e-15 3.18055e-15 -19.9818 0.871897 -2.3964 -24 2.78299e-15 -0 -20 1.59028e-15 6.36111e-15 2.38542e-15 3.18055e-15 3.18055e-15 -20 -8.74653e-15 -0 -24 -3.97569e-16 3.18055e-15 -20 3.18055e-15 -0 2.38542e-15 3.18055e-15 3.18055e-15 -19.9748 -1.02565 2.81938 -24 0 3.18055e-15 -20 -3.18055e-15 6.36111e-15 2.38542e-15 3.18055e-15 3.18055e-15 -19.7815 -3.00948 8.30515 -24 -1.59028e-15 -0 -20 0 -6.36111e-15 
